<?xml version="1.0" encoding="UTF-8" standalone="no"?>
<!-- Created with Inkscape (http://www.inkscape.org/) -->

<svg
   xmlns:dc="http://purl.org/dc/elements/1.1/"
   xmlns:cc="http://creativecommons.org/ns#"
   xmlns:rdf="http://www.w3.org/1999/02/22-rdf-syntax-ns#"
   xmlns:svg="http://www.w3.org/2000/svg"
   xmlns="http://www.w3.org/2000/svg"
   xmlns:sodipodi="http://sodipodi.sourceforge.net/DTD/sodipodi-0.dtd"
   xmlns:inkscape="http://www.inkscape.org/namespaces/inkscape"
   width="100%"
   height="100%"
   viewBox="0 0 210 297"
   version="1.1"
   id="svg3796"
   inkscape:version="0.92.2 5c3e80d, 2017-08-06"
   sodipodi:docname="spiral_cat_2.svg">
  <defs
     id="defs3790" />
  <sodipodi:namedview
     id="base"
     pagecolor="#ffffff"
     bordercolor="#666666"
     borderopacity="1.0"
     inkscape:pageopacity="0.0"
     inkscape:pageshadow="2"
     inkscape:zoom="0.35"
     inkscape:cx="400"
     inkscape:cy="560"
     inkscape:document-units="mm"
     inkscape:current-layer="layer1"
     showgrid="false"
     inkscape:window-width="1920"
     inkscape:window-height="1178"
     inkscape:window-x="48"
     inkscape:window-y="37"
     inkscape:window-maximized="0" />
  <metadata
     id="metadata3793">
    <rdf:RDF>
      <cc:Work
         rdf:about="">
        <dc:format>image/svg+xml</dc:format>
        <dc:type
           rdf:resource="http://purl.org/dc/dcmitype/StillImage" />
        <dc:title></dc:title>
      </cc:Work>
    </rdf:RDF>
  </metadata>
  <g
     inkscape:label="Layer 1"
     inkscape:groupmode="layer"
     id="layer1">
    <path
       sodipodi:type="spiral"
       style="fill:#445500;fill-rule:evenodd;stroke:#000000;stroke-width:0.26458332"
       id="path3806"
       sodipodi:cx="100.54167"
       sodipodi:cy="159.41666"
       sodipodi:expansion="1"
       sodipodi:revolution="3"
       sodipodi:radius="65.471764"
       sodipodi:argument="-18.303196"
       sodipodi:t0="0"
       d="m 100.54167,159.41666 c 2.80477,1.7056 -0.915342,4.62225 -2.83482,4.6617 -5.201666,0.10692 -7.535279,-6.02044 -6.488592,-10.33135 1.872279,-7.71119 10.872422,-10.75441 17.827882,-8.31547 10.2074,3.57924 14.04813,15.78269 10.14236,25.3244 -5.20577,12.7176 -20.71267,17.37237 -32.820935,11.96925 -15.237015,-6.79927 -20.712132,-25.65179 -13.796133,-40.31746 8.376201,-17.76209 30.596028,-24.06085 47.813988,-15.62302 20.29078,9.94369 27.41518,35.54343 17.44991,55.31052 -11.50531,22.82188 -40.49296,30.77325 -62.80705,19.27679 -25.354686,-13.06301 -34.133941,-45.44398 -21.103675,-70.30358 14.617989,-27.88871 50.396075,-37.496534 77.800105,-22.93056 30.42365,16.171 40.86056,55.34901 24.75744,85.29663" />
    <path
       sodipodi:type="spiral"
       style="fill:#222b00;fill-rule:evenodd;stroke:#000000;stroke-width:0.26458332"
       id="path3808"
       sodipodi:cx="100.54167"
       sodipodi:cy="159.41666"
       sodipodi:expansion="1"
       sodipodi:revolution="3"
       sodipodi:radius="105.81712"
       sodipodi:argument="-20.687857"
       sodipodi:t0="0"
       d="m 100.54167,159.41666 c -1.402377,-5.11681 6.20547,-4.41483 8.50447,-2.33085 6.23014,5.64747 2.17145,15.43653 -3.84278,19.33978 -10.758041,6.98199 -24.709927,0.56867 -30.175084,-10.01639 -8.020337,-15.53401 1.011195,-34.13459 16.19001,-41.0104 20.230974,-9.16438 43.616264,2.57706 51.845714,22.36362 10.35592,24.89937 -4.13485,53.12594 -28.53725,62.68103 -29.554578,11.57248 -62.651544,-5.68778 -73.516335,-34.71087 -12.80378,-34.20271 7.237638,-72.1871 40.884484,-84.351646 38.846621,-14.044444 81.729311,8.785456 95.186961,47.058106 15.29143,43.48781 -10.33185,91.27618 -53.23172,106.02227 C 75.722962,261.00419 23.023694,232.5841 6.9925538,185.05597 -10.805051,132.29074 20.414367,74.676716 72.571513,57.363073" />
    <path
       sodipodi:type="spiral"
       style="fill:#225500;fill-rule:evenodd;stroke:#000000;stroke-width:0.26458332"
       id="path3810"
       sodipodi:cx="156.16969"
       sodipodi:cy="192.78241"
       sodipodi:expansion="1"
       sodipodi:revolution="3"
       sodipodi:radius="22.691168"
       sodipodi:argument="-18.326277"
       sodipodi:t0="0.031866785"
       d="m 156.48216,193.43451 c -0.12486,1.32328 -1.9637,1.06312 -2.66984,0.47747 -1.6574,-1.37458 -1.05302,-3.9393 0.41069,-5.19221 2.37721,-2.03486 5.9735,-1.07471 7.7146,1.29885 2.44598,3.33451 1.10422,8.02805 -2.18702,10.23697 -4.27802,2.8712 -10.09113,1.13777 -12.75935,-3.07517 -3.30334,-5.21574 -1.17356,-12.15866 3.96333,-15.28174 6.15053,-3.73934 14.22881,-1.2107 17.80412,4.8515 4.17772,7.08363 1.24872,16.30065 -5.73966,20.3265 -8.01568,4.61766 -18.37363,1.28734 -22.84888,-6.62782 -5.05867,-8.94703 -1.32637,-20.44745 7.51599,-25.37126 9.87789,-5.50045 22.52185,-1.36572 27.89364,8.40414 3.49288,6.35263 3.5205,14.19547 0.24467,20.63997" />
    <path
       sodipodi:type="spiral"
       style="fill:#668000;fill-rule:evenodd;stroke:#000000;stroke-width:0.26458332"
       id="path3812"
       sodipodi:cx="71.091705"
       sodipodi:cy="56.028"
       sodipodi:expansion="1"
       sodipodi:revolution="3"
       sodipodi:radius="62.54327"
       sodipodi:argument="-18.716206"
       sodipodi:t0="0.0318668"
       d="m 72.571516,57.363075 c 1.068137,3.504379 -3.892363,4.767707 -6.306175,4.014517 -5.665555,-1.767843 -6.811857,-8.939521 -4.393009,-13.667246 3.928459,-7.678313 14.102763,-8.998431 21.028316,-4.771501 9.729419,5.938236 11.226297,19.309686 5.149993,28.389387 C 80.152544,83.130205 63.516515,84.801574 52.300183,76.856717 38.414058,67.020766 36.569413,47.089174 46.393206,33.745188 58.155473,17.768111 81.399444,15.750776 96.865806,27.45972 114.93812,41.141523 117.12786,67.708038 103.52977,85.29339 87.932739,105.46381 58.037059,107.82581 38.335026,92.335843 16.064506,74.826502 13.530308,41.597097 30.914081,19.780031 50.333678,-4.5920454 86.900082,-7.2984051 110.83096,11.980594 c 15.5605,12.535717 23.84805,32.501197 22.24876,52.362875" />
    <path
       sodipodi:type="spiral"
       style="fill:#aad400;fill-rule:evenodd;stroke:#000000;stroke-width:0.26458332"
       id="path3814"
       sodipodi:cx="132.38045"
       sodipodi:cy="63.105148"
       sodipodi:expansion="1"
       sodipodi:revolution="3"
       sodipodi:radius="44.626816"
       sodipodi:argument="-18.393484"
       sodipodi:t0="0.0318668"
       d="m 133.07971,64.343469 c -0.0702,2.613127 -3.71288,2.345475 -5.17586,1.289555 -3.43382,-2.478395 -2.58659,-7.59087 0.12011,-10.242741 4.39596,-4.306912 11.57965,-2.897824 15.30962,1.529767 5.24009,6.220137 3.22711,15.607327 -2.93942,20.376508 -8.01539,6.199074 -19.65121,3.56541 -25.44339,-4.349089 -7.17089,-9.798367 -3.90871,-23.703501 5.75875,-30.510275 11.57507,-8.149917 27.76077,-4.255011 35.57715,7.168411 9.13338,13.348174 4.60326,31.82125 -8.57807,40.644042 -15.119,10.119753 -35.8839,4.952824 -45.71092,-9.987733 -11.108144,-16.888306 -5.303329,-39.948105 11.39739,-50.777809 18.65655,-12.097978 44.01345,-5.654512 55.84469,12.807055 7.69299,12.004201 8.78305,27.390276 3.20617,40.468746" />
    <path
       sodipodi:type="spiral"
       style="fill:#ccff00;fill-rule:evenodd;stroke:#000000;stroke-width:0.26458332"
       id="path3818"
       sodipodi:cx="172.66275"
       sodipodi:cy="81.553391"
       sodipodi:expansion="1"
       sodipodi:revolution="3"
       sodipodi:radius="38.467743"
       sodipodi:argument="-17.701626"
       sodipodi:t0="0.0318668"
       d="m 172.44593,82.759907 c -1.48363,1.695934 -3.75437,-0.484902 -4.1448,-1.990329 -0.91639,-3.533448 2.45744,-6.461117 5.71243,-6.732912 5.28643,-0.441423 9.27995,4.444368 9.32102,9.434523 0.0577,7.01046 -6.4407,12.134541 -13.15662,11.909134 -8.72948,-0.292989 -15.00484,-8.439956 -14.49725,-16.878718 0.62842,-10.447418 10.44053,-17.88347 20.60082,-17.085354 12.16516,0.955603 20.76706,12.441838 19.67346,24.322911 -1.27786,13.882936 -14.44361,23.653848 -28.045,22.261578 -15.60081,-1.59694 -26.54281,-16.445723 -24.84969,-31.767107 1.91384,-17.318781 18.44806,-29.433301 35.4892,-27.437797 19.03685,2.229198 32.32494,20.450566 30.02591,39.211299 -1.49489,12.198725 -9.23246,23.011195 -20.12643,28.625625" />
    <path
       sodipodi:type="spiral"
       style="fill:#338000;fill-rule:evenodd;stroke:#000000;stroke-width:0.26458332"
       id="path3820"
       sodipodi:cx="175.82445"
       sodipodi:cy="204.1217"
       sodipodi:expansion="1"
       sodipodi:revolution="3"
       sodipodi:radius="24.237148"
       sodipodi:argument="-18.010113"
       sodipodi:t0="0.0318668"
       d="m 175.92509,204.88748 c -0.56622,1.30192 -2.34659,0.42711 -2.86896,-0.40194 -1.22607,-1.9459 0.23925,-4.34886 2.1413,-5.13469 3.08911,-1.27629 6.42115,0.89281 7.40042,3.88065 1.37572,4.19749 -1.54518,8.51672 -5.62001,9.66614 -5.29654,1.49405 -10.62227,-2.19628 -11.93187,-7.35935 -1.62133,-6.39202 2.84659,-12.73309 9.0987,-14.19761 7.48582,-1.75351 14.84702,3.4964 16.46334,10.83806 1.88866,8.57868 -4.14587,16.96296 -12.57741,18.72907 -9.67099,2.02573 -19.08026,-4.79512 -20.9948,-14.31677 -2.16414,-10.76295 5.44422,-21.19852 16.05612,-23.26052 11.85467,-2.30349 23.31752,6.0932 25.52626,17.79547 1.43618,7.60913 -1.14044,15.58027 -6.60629,21.03473" />
    <path
       sodipodi:type="spiral"
       style="fill:#ddff55;fill-rule:evenodd;stroke:#000000;stroke-width:0.26458332"
       id="path3822"
       sodipodi:cx="188.44897"
       sodipodi:cy="116.63275"
       sodipodi:expansion="1"
       sodipodi:revolution="3"
       sodipodi:radius="21.288021"
       sodipodi:argument="-17.787369"
       sodipodi:t0="0.0318668"
       d="m 188.38661,117.30826 c -0.73765,1.00539 -2.09302,-0.0894 -2.37963,-0.90097 -0.67273,-1.9048 1.04874,-3.67891 2.83055,-3.98302 2.89384,-0.49392 5.32728,2.01068 5.58642,4.76013 0.36405,3.8626 -2.97611,6.99582 -6.68972,7.18981 -4.82703,0.25217 -8.67315,-3.94239 -8.79321,-8.6193 -0.14863,-5.79013 4.90902,-10.35514 10.54889,-10.3966 6.75274,-0.0496 12.0399,5.87582 11.99999,12.47847 -0.0466,7.71514 -6.84272,13.72644 -14.40805,13.60339 -8.67744,-0.14114 -15.4142,-7.8097 -15.20678,-16.33764 0.23445,-9.63969 8.77673,-17.102814 18.26722,-16.810174 10.60192,0.326911 18.79207,9.743814 18.41357,20.196804 -0.24611,6.79681 -3.99992,13.12514 -9.74041,16.73703" />
    <path
       sodipodi:type="spiral"
       style="fill:#55d400;fill-rule:evenodd;stroke:#000000;stroke-width:0.26458332"
       id="path3824"
       sodipodi:cx="192.01189"
       sodipodi:cy="222.16071"
       sodipodi:expansion="1"
       sodipodi:revolution="3"
       sodipodi:radius="19.273083"
       sodipodi:argument="-17.724865"
       sodipodi:t0="0.0318668"
       d="m 191.91733,222.76755 c -0.72338,0.86674 -1.88615,-0.19917 -2.09923,-0.94866 -0.50015,-1.75918 1.15567,-3.26489 2.78287,-3.43892 2.64275,-0.28265 4.69992,2.11808 4.77859,4.61709 0.11052,3.51075 -3.08477,6.15298 -6.45129,6.11826 -4.37587,-0.0451 -7.61394,-4.05275 -7.45794,-8.2855 0.19313,-5.24026 5.02129,-9.07909 10.1197,-8.79762 6.10446,0.33702 10.54675,5.99015 10.1373,11.95392 -0.47843,6.96862 -6.95919,12.01599 -13.78812,11.47697 -7.83279,-0.61825 -13.48633,-7.92838 -12.81665,-15.62233 0.75698,-8.69698 8.89767,-14.95745 17.45654,-14.15633 9.5612,0.89494 16.42913,9.86703 15.496,19.29075 -0.60675,6.12755 -4.35649,11.63343 -9.74774,14.57243" />
    <path
       sodipodi:type="spiral"
       style="fill:#e5ff80;fill-rule:evenodd;stroke:#000000;stroke-width:0.26458332"
       id="path3826"
       sodipodi:cx="198.81544"
       sodipodi:cy="135.2262"
       sodipodi:expansion="1"
       sodipodi:revolution="3"
       sodipodi:radius="17.793011"
       sodipodi:argument="-17.492821"
       sodipodi:t0="0.0318668"
       d="m 198.60165,135.75135 c -0.83394,0.62516 -1.65235,-0.57939 -1.68467,-1.29802 -0.0759,-1.68674 1.73148,-2.68802 3.23041,-2.49891 2.43442,0.30713 3.77302,2.90083 3.31314,5.1628 -0.64606,3.17775 -4.07787,4.8733 -7.09519,4.12738 -3.92197,-0.96957 -5.98041,-5.25774 -4.9416,-9.02758 1.28606,-4.66718 6.43899,-7.09117 10.95996,-5.75584 5.41308,1.59881 8.2041,7.62106 6.57008,12.89235 -1.90934,6.15947 -8.80365,9.31842 -14.82475,7.38431 -6.9062,-2.21843 -10.4337,-9.98659 -8.19854,-16.75714 2.52655,-7.65319 11.16979,-11.54965 18.68952,-9.01277 8.40038,2.83398 12.66611,12.35317 9.82701,20.62191 -1.84606,5.37656 -6.384,9.52728 -11.8518,11.02326" />
    <path
       sodipodi:type="spiral"
       style="fill:#99ff55;fill-rule:evenodd;stroke:#000000;stroke-width:0.26458332"
       id="path3828"
       sodipodi:cx="200.32735"
       sodipodi:cy="239.54762"
       sodipodi:expansion="1"
       sodipodi:revolution="3.0069025"
       sodipodi:radius="49.48251"
       sodipodi:argument="-15.908362"
       sodipodi:t0="0.031793661"
       d="m 198.87848,238.93458 c -1.7028,-2.33737 1.67007,-4.56226 3.66505,-4.6247 4.68251,-0.14656 7.3919,4.90566 6.81043,9.05707 -0.94436,6.74233 -8.19099,10.35778 -14.44909,8.99616 -8.79173,-1.91287 -13.36574,-11.49823 -11.18189,-19.84111 2.83861,-10.84423 14.81358,-16.39253 25.23313,-13.36761 12.89969,3.74493 19.4294,18.13292 15.55335,30.62514 -4.6409,14.95723 -21.45461,22.47226 -36.01716,17.73908 -17.01622,-5.5307 -25.51899,-24.77778 -19.92481,-41.40918 6.41653,-19.07623 28.10196,-28.56834 46.80119,-22.11054 21.13698,7.29969 31.61956,31.42688 24.29627,52.19321 -8.18093,23.19828 -34.75234,34.67215 -57.58522,26.482 -15.55419,-5.57929 -27.19382,-19.278 -30.62607,-35.38815" />
    <path
       sodipodi:type="spiral"
       style="fill:#b3ff80;fill-rule:evenodd;stroke:#000000;stroke-width:0.26458332"
       id="path3830"
       sodipodi:cx="151.45366"
       sodipodi:cy="247.28595"
       sodipodi:expansion="1"
       sodipodi:revolution="3.0069001"
       sodipodi:radius="50.915268"
       sodipodi:argument="-15.762653"
       sodipodi:t0="0.031793699"
       d="m 150.07022,246.44538 c -1.38433,-2.63395 2.38182,-4.39511 4.42214,-4.16063 4.78894,0.55035 6.79244,6.09856 5.58026,10.23804 -1.9687,6.72295 -9.88629,9.32103 -16.05394,6.99989 -8.66466,-3.26088 -11.8892,-13.70262 -8.41951,-21.86984 4.50996,-10.61591 17.53001,-14.47533 27.68573,-9.83914 12.57307,5.73973 17.07112,21.36298 11.25877,33.50163 -6.95925,14.5339 -25.19922,19.67265 -39.31753,12.6784 -16.49712,-8.17273 -22.2779,-29.03756 -14.09802,-45.13343 9.38232,-18.46198 32.87732,-24.88567 50.94932,-15.51765 20.42799,10.58929 27.49523,36.71811 16.93729,56.76522 -11.7944,22.39484 -40.55966,30.10611 -62.58113,18.35691 -15.00118,-8.00364 -24.80432,-23.68823 -25.89194,-40.60168" />
  </g>
</svg>
